<svg version="1.2" xmlns="http://www.w3.org/2000/svg" viewBox="0 0 1589 644" width="1589" height="644">
	<title>odddd-svg</title>
	<style>
		.s0 { fill: #000000 } 
	</style>
	<path id="Layer" fill-rule="evenodd" class="s0" d="m955.2 98.3h25.3l-9.2 70 68.6-102.3h-23.3l10-66z"/>
	<path id="Layer" fill-rule="evenodd" class="s0" d="m873.1 253.3v134.1c0 38-68.2 41.8-68.2 79.8v133.2l-42.4 42.6h-169v-68.5c0-38.3 68.2-46.4 68.2-88.2v-275.5h168.9zm-96.1 206.4c26.5-19 28.3-29.4 28.3-53.3v-120.2l-14.1-14.2h-61.7c0 0-0.6 130.6-0.6 176.2 0 45.7-67.6 38.1-67.6 91v37.9h75.8c0 0 0-26.5 0-41.4 0-56.6 10.7-55.2 39.9-76z"/>
	<path id="Layer" fill-rule="evenodd" class="s0" d="m1237.6 272v371h-66.9v-371h-72.6v-61.5h212.2v61.5z"/>
	<path id="Layer" fill-rule="evenodd" class="s0" d="m1027.5 272.5v370.5h-66.9v-432.5h66.9z"/>
	<path id="Layer" fill-rule="evenodd" class="s0" d="m562.4 253.3v134.1c0 38-68.2 41.8-68.2 79.8v133.2l-42.4 42.6h-169v-68.5c0-38.3 68.1-46.4 68.1-88.2v-275.5h169zm-96.1 206.4c26.5-19 28.3-29.4 28.3-53.3v-120.2l-14.1-14.2h-61.7c0 0-0.6 130.6-0.6 176.2 0 45.7-67.6 38.1-67.6 91v37.9h75.8c0 0 0-26.5 0-41.4 0-56.6 10.8-55.2 39.9-76z"/>
	<path id="Layer" fill-rule="evenodd" class="s0" d="m1520.7 210.8l-51.2 155.7-51.2-155.7h-68.3l86 236.6v195.6h66.9v-195.6l86.1-236.6z"/>
	<path id="Layer" fill-rule="evenodd" class="s0" d="m0 600.2v-347.3l40.3-42.1h169.7l42.5 42.3v128c0 30.8-15.5 33.9-35.8 47.2-17 11-32.5 16.9-32.5 39v133.2l-42.4 42.6h-101.5zm67.8-23.7h46.9c0 0 0-39.8 0-50.3 0-16.1 2.4-38.8 35.6-63.6 27.5-20.5 34.3-28 34.3-62v-130.2h-116.8z"/>
</svg>